<?xml version="1.0" encoding="utf-8"?>
<!-- Generator: Adobe Illustrator 24.0.2, SVG Export Plug-In . SVG Version: 6.00 Build 0)  -->
<svg version="1.1" id="Layer_1" xmlns="http://www.w3.org/2000/svg" xmlns:xlink="http://www.w3.org/1999/xlink" x="0px" y="0px"
	 viewBox="0 0 30 30" style="enable-background:new 0 0 30 30;" xml:space="preserve">
<style type="text/css">
	.st0{fill-rule:evenodd;clip-rule:evenodd;fill:#6E70C0;}
</style>
<path class="st0" d="M15,0c8.3,0,15,6.7,15,15c0,8.3-6.7,15-15,15S0,23.3,0,15C0,6.7,6.7,0,15,0z M16,23.9V16h2.8l0.4-3.1H16v-2
	c0-0.9,0.3-1.5,1.6-1.5l1.7,0V6.6c-0.3,0-1.3-0.1-2.5-0.1c-2.5,0-4.2,1.4-4.2,4.1v2.3H9.8V16h2.8v7.9H16z"/>
</svg>
