<?xml version="1.0" encoding="utf-8"?>
<!-- Generator: Adobe Illustrator 24.0.2, SVG Export Plug-In . SVG Version: 6.00 Build 0)  -->
<svg version="1.1" id="Layer_1" xmlns="http://www.w3.org/2000/svg" xmlns:xlink="http://www.w3.org/1999/xlink" x="0px" y="0px"
	 viewBox="0 0 30 30" style="enable-background:new 0 0 30 30;" xml:space="preserve">
<style type="text/css">
	.st0{fill-rule:evenodd;clip-rule:evenodd;fill:url(#SVGID_1_);}
	.st1{fill:#FFFFFF;}
</style>
<linearGradient id="SVGID_1_" gradientUnits="userSpaceOnUse" x1="8.5826" y1="28.5684" x2="21.0932" y2="2.0152">
	<stop  offset="1.610353e-03" style="stop-color:#FFBA30"/>
	<stop  offset="5.697780e-02" style="stop-color:#FD953B"/>
	<stop  offset="0.1188" style="stop-color:#FC7345"/>
	<stop  offset="0.1819" style="stop-color:#FB584C"/>
	<stop  offset="0.2461" style="stop-color:#FA4552"/>
	<stop  offset="0.312" style="stop-color:#F93A55"/>
	<stop  offset="0.3822" style="stop-color:#F93656"/>
	<stop  offset="0.5866" style="stop-color:#ED2695"/>
	<stop  offset="1" style="stop-color:#9F25EC"/>
</linearGradient>
<path class="st0" d="M15,0c8.3,0,15,6.7,15,15c0,8.3-6.7,15-15,15S0,23.3,0,15C0,6.7,6.7,0,15,0z"/>
<g>
	<g>
		<path class="st1" d="M23.2,11.6c0-0.9-0.2-1.5-0.4-2c-0.2-0.5-0.5-1-1-1.5c-0.5-0.5-0.9-0.7-1.5-1c-0.5-0.2-1.1-0.3-2-0.4
			c-0.9,0-1.2,0-3.4,0c-2.3,0-2.5,0-3.4,0c-0.9,0-1.5,0.2-2,0.4c-0.5,0.2-1,0.5-1.5,1C7.6,8.5,7.3,9,7.1,9.5c-0.2,0.5-0.3,1.1-0.4,2
			c0,0.9,0,1.2,0,3.4c0,2.3,0,2.5,0,3.4c0,0.9,0.2,1.5,0.4,2c0.2,0.5,0.5,1,1,1.5c0.5,0.5,0.9,0.7,1.5,1c0.5,0.2,1.1,0.3,2,0.4
			c0.9,0,1.2,0.1,3.4,0.1c2.3,0,2.5,0,3.4-0.1c0.9,0,1.5-0.2,2-0.4c0.5-0.2,1-0.5,1.5-1c0.5-0.5,0.7-0.9,1-1.5
			c0.2-0.5,0.3-1.1,0.4-2c0-0.9,0.1-1.2,0.1-3.4C23.3,12.7,23.3,12.5,23.2,11.6z M21.7,18.4c0,0.8-0.2,1.3-0.3,1.5
			c-0.2,0.4-0.3,0.7-0.6,1c-0.3,0.3-0.6,0.5-1,0.6c-0.3,0.1-0.7,0.2-1.5,0.3c-0.9,0-1.1,0-3.4,0c-2.2,0-2.5,0-3.4,0
			c-0.8,0-1.3-0.2-1.5-0.3c-0.4-0.2-0.7-0.3-1-0.6c-0.3-0.3-0.5-0.6-0.6-1c-0.1-0.3-0.2-0.7-0.3-1.5c0-0.9,0-1.1,0-3.4
			c0-2.2,0-2.5,0-3.4c0-0.8,0.2-1.3,0.3-1.5c0.2-0.4,0.3-0.7,0.6-1c0.3-0.3,0.6-0.5,1-0.6c0.3-0.1,0.7-0.2,1.5-0.3
			c0.9,0,1.1,0,3.4,0c2.2,0,2.5,0,3.4,0c0.8,0,1.3,0.2,1.5,0.3c0.4,0.2,0.7,0.3,1,0.6c0.3,0.3,0.5,0.6,0.6,1
			c0.1,0.3,0.2,0.7,0.3,1.5c0,0.9,0,1.1,0,3.4C21.8,17.2,21.8,17.5,21.7,18.4z M15,10.7c-2.4,0-4.3,1.9-4.3,4.3
			c0,2.4,1.9,4.3,4.3,4.3c2.4,0,4.3-1.9,4.3-4.3C19.2,12.6,17.3,10.7,15,10.7z M15,17.8c-1.5,0-2.8-1.2-2.8-2.8
			c0-1.5,1.2-2.8,2.8-2.8c1.5,0,2.8,1.2,2.8,2.8C17.7,16.5,16.5,17.8,15,17.8z M19.4,9.6c-0.6,0-1,0.4-1,1c0,0.6,0.4,1,1,1
			c0.6,0,1-0.4,1-1C20.4,10,20,9.6,19.4,9.6z"/>
	</g>
</g>
</svg>
