<?xml version="1.0" encoding="utf-8"?>
<!-- Generator: Adobe Illustrator 24.0.2, SVG Export Plug-In . SVG Version: 6.00 Build 0)  -->
<svg version="1.1" id="Layer_1" xmlns="http://www.w3.org/2000/svg" xmlns:xlink="http://www.w3.org/1999/xlink" x="0px" y="0px"
	 viewBox="0 0 30 30" style="enable-background:new 0 0 30 30;" xml:space="preserve">
<style type="text/css">
	.st0{fill-rule:evenodd;clip-rule:evenodd;fill:#49A2E7;}
	.st1{fill:#FFFFFF;}
</style>
<path class="st0" d="M15,0c8.3,0,15,6.7,15,15c0,8.3-6.7,15-15,15S0,23.3,0,15C0,6.7,6.7,0,15,0z"/>
<path class="st1" d="M21.2,8.1L5.9,13.9C5,14.1,5,15,5.7,15.2l3.8,1.2l1.5,4.5c0.2,0.5,0.3,0.7,0.6,0.7c0.3,0,0.4-0.1,0.8-0.4
	c0.4-0.4,1-0.9,1.9-1.9l4,3c0.7,0.4,1.3,0.2,1.5-0.7l2.5-12.4C22.5,8.1,21.9,7.7,21.2,8.1z M10.1,16.1l8.7-5.5
	c0.4-0.3,0.6,0,0.4,0.3L12,17.4l-0.4,3.3L10.1,16.1z"/>
</svg>
