<?xml version="1.0" encoding="utf-8"?>
<!-- Generator: Adobe Illustrator 24.0.2, SVG Export Plug-In . SVG Version: 6.00 Build 0)  -->
<svg version="1.1" id="Layer_1" xmlns="http://www.w3.org/2000/svg" xmlns:xlink="http://www.w3.org/1999/xlink" x="0px" y="0px"
	 viewBox="0 0 30 30" style="enable-background:new 0 0 30 30;" xml:space="preserve">
<style type="text/css">
	.st0{fill-rule:evenodd;clip-rule:evenodd;fill:#9D63CF;}
	.st1{fill:#FFFFFF;}
</style>
<path class="st0" d="M15,0c8.3,0,15,6.7,15,15c0,8.3-6.7,15-15,15S0,23.3,0,15C0,6.7,6.7,0,15,0z"/>
<path class="st1" d="M20.9,8.9c-0.6-0.5-1.4-0.9-2.1-1.1c-2-0.5-4-0.6-6-0.4c-1,0.1-2,0.4-2.9,0.9C8.7,9,8,9.9,7.7,11.1
	c-0.2,0.9-0.3,1.7-0.4,2.6c-0.1,1.3,0,2.6,0.3,3.9c0.4,1.5,1.2,2.6,2.7,3.1c0.2,0.1,0.3,0.1,0.5,0.2c0.1,0.1,0.2,0.2,0.2,0.3
	c0,1,0,2,0,3.1c0.4-0.4,0.6-0.6,0.8-0.8c0.6-0.6,1.1-1.2,1.7-1.8c0.3-0.3,0.2-0.3,0.6-0.3c0.5,0,1.4,0,1.9,0c1-0.1,2.1-0.2,3.1-0.5
	c1.3-0.4,2.3-1.1,2.8-2.3c0.1-0.3,0.3-0.7,0.4-1c0.5-2,0.4-4.1,0-6.1C22.1,10.4,21.6,9.6,20.9,8.9z M14.6,10.2
	c0-0.2,0.1-0.3,0.3-0.3c1.6,0.1,2.8,0.5,3.7,1.8c0.5,0.7,0.8,1.7,0.9,2.6c0,0.1,0,0.3,0,0.4c0,0.1-0.1,0.3-0.2,0.3
	c-0.2,0-0.3-0.1-0.3-0.3c0-0.7-0.2-1.3-0.4-1.9c-0.5-1.2-1.4-1.8-2.6-2.2c-0.3-0.1-0.6-0.2-1-0.2C14.7,10.4,14.6,10.4,14.6,10.2z
	 M16.2,11.9c-0.3-0.1-0.6-0.2-1-0.3c-0.2,0-0.3-0.1-0.2-0.3c0-0.2,0.1-0.3,0.3-0.2c1.1,0.1,2,0.5,2.6,1.5c0.3,0.4,0.4,1.1,0.4,1.6
	c0,0.3-0.1,0.4-0.3,0.4c-0.3,0-0.2-0.2-0.3-0.4c0-0.3-0.1-0.5-0.2-0.8C17.3,12.6,16.9,12.1,16.2,11.9z M17.1,13.7c0,0.1,0,0.2,0,0.2
	c0,0.1-0.1,0.2-0.2,0.2c-0.1,0-0.2-0.1-0.2-0.2c0-0.1,0-0.2,0-0.2c-0.1-0.4-0.3-0.7-0.8-0.9c-0.1,0-0.1,0-0.2,0
	c-0.1,0-0.3,0-0.3-0.2c0-0.2,0.1-0.3,0.4-0.3c0.2,0,0.4,0.1,0.5,0.1C16.8,12.7,17,13.1,17.1,13.7z M19.4,18.4
	c-0.3,0.7-0.8,1.2-1.6,1.4c-0.3,0.1-0.5,0-0.8-0.1c-3.3-1.4-5.7-3.8-7.1-7.2c-0.1-0.2-0.2-0.5-0.1-0.7c0-0.9,0.8-1.7,1.6-1.7
	c0.2,0,0.4,0.1,0.6,0.2c0.6,0.6,1.1,1.2,1.4,1.9c0.2,0.4,0.1,0.7-0.2,1c-0.1,0-0.1,0.1-0.2,0.1c-0.4,0.3-0.5,0.7-0.3,1.2
	c0.4,0.8,0.9,1.5,1.7,2c0.3,0.2,0.6,0.4,0.9,0.5c0.3,0.1,0.6,0,0.8-0.2c0,0,0-0.1,0.1-0.1c0.4-0.6,0.9-0.7,1.5-0.3
	c0.5,0.3,1,0.7,1.5,1.1C19.5,17.7,19.6,18,19.4,18.4z"/>
</svg>
