<?xml version="1.0" encoding="utf-8"?>
<!-- Generator: Adobe Illustrator 24.0.2, SVG Export Plug-In . SVG Version: 6.00 Build 0)  -->
<svg version="1.1" id="Layer_1" xmlns="http://www.w3.org/2000/svg" xmlns:xlink="http://www.w3.org/1999/xlink" x="0px" y="0px"
	 viewBox="0 0 30 30" style="enable-background:new 0 0 30 30;" xml:space="preserve">
<style type="text/css">
	.st0{fill-rule:evenodd;clip-rule:evenodd;fill:#65A54C;}
	.st1{fill-rule:evenodd;clip-rule:evenodd;fill:#FFFFFF;}
</style>
<path class="st0" d="M15,0c8.3,0,15,6.7,15,15c0,8.3-6.7,15-15,15S0,23.3,0,15C0,6.7,6.7,0,15,0z"/>
<g>
	<g>
		<path class="st1" d="M15.1,6.7c-4.5,0-8.1,3.6-8.1,8.1c0,1.5,0.4,3,1.2,4.2l-1.5,4.3l4.5-1.4c1.2,0.6,2.5,1,3.9,1
			c4.5,0,8.1-3.6,8.1-8.1C23.2,10.3,19.6,6.7,15.1,6.7z M15.1,21.5c-1.4,0-2.6-0.4-3.7-1.1l-2.6,0.8l0.8-2.5
			c-0.8-1.1-1.3-2.5-1.3-3.9c0-3.7,3-6.7,6.7-6.7c3.7,0,6.7,3,6.7,6.7C21.8,18.5,18.8,21.5,15.1,21.5z M18.9,16.6
			c-0.2-0.1-1.2-0.6-1.4-0.7c-0.2-0.1-0.3-0.1-0.5,0.1c-0.1,0.2-0.6,0.7-0.7,0.8c-0.1,0.1-0.2,0.1-0.4,0c-0.2-0.1-0.9-0.4-1.6-1.1
			c-0.6-0.6-1-1.3-1.1-1.5c-0.1-0.2,0-0.3,0.1-0.4c0.1-0.1,0.2-0.2,0.3-0.3c0.1-0.1,0.1-0.2,0.2-0.3c0.1-0.1,0-0.3,0-0.4
			c0-0.1-0.4-1.1-0.6-1.6c-0.2-0.4-0.3-0.4-0.5-0.4c-0.1,0-0.3,0-0.4,0c-0.1,0-0.4,0-0.6,0.2c-0.2,0.2-0.7,0.7-0.8,1.7
			c0,1,0.7,2,0.8,2.2c0.1,0.1,1.3,2.3,3.4,3.2c2.1,0.9,2.1,0.6,2.5,0.6c0.4,0,1.2-0.5,1.4-0.9c0.2-0.5,0.2-0.9,0.2-1
			C19.2,16.8,19.1,16.7,18.9,16.6z"/>
	</g>
</g>
</svg>
